<svg width="547" height="532" viewBox="0 0 547 532" fill="none" xmlns="http://www.w3.org/2000/svg">
<rect x="10" y="16" width="522" height="504" rx="58" stroke="url(#paint0_linear_311_25)" stroke-width="2"/>
<path d="M239.969 21.3468C235.324 11.4017 242.584 0 253.56 0H272.44C283.416 0 290.676 11.4017 286.031 21.3468L274.741 45.5249C272.611 50.0854 268.033 53 263 53V53C257.967 53 253.389 50.0854 251.259 45.5249L239.969 21.3468Z" fill="url(#paint1_linear_311_25)"/>
<path d="M278.537 520.554C281.071 525.864 277.2 532 271.317 532L254.683 532C248.8 532 244.929 525.864 247.463 520.554L255.576 503.554C256.904 500.772 259.713 499 262.796 499L263.204 499C266.287 499 269.096 500.772 270.424 503.554L278.537 520.554Z" fill="url(#paint2_linear_311_25)"/>
<path d="M535.554 245.463C540.864 242.929 547 246.8 547 252.683L547 269.317C547 275.2 540.864 279.071 535.554 276.537L518.554 268.424C515.772 267.096 514 264.287 514 261.204L514 260.796C514 257.713 515.772 254.904 518.554 253.576L535.554 245.463Z" fill="url(#paint3_linear_311_25)"/>
<path d="M11.4458 276.537C6.13646 279.071 8.10838e-08 275.2 1.51239e-07 269.317L3.49606e-07 252.683C4.19761e-07 246.8 6.13646 242.929 11.4458 245.463L28.4458 253.576C31.2283 254.904 33 257.713 33 260.796L33 261.204C33 264.287 31.2283 267.096 28.4458 268.424L11.4458 276.537Z" fill="url(#paint4_linear_311_25)"/>
<defs>
<linearGradient id="paint0_linear_311_25" x1="271" y1="7.04857" x2="271" y2="528.59" gradientUnits="userSpaceOnUse">
<stop stop-color="#FFD79A"/>
<stop offset="0.194252" stop-color="#FFBA53"/>
<stop offset="0.526042" stop-color="#7B5430"/>
<stop offset="0.760417" stop-color="#211400"/>
<stop offset="1" stop-color="#7B5430"/>
</linearGradient>
<linearGradient id="paint1_linear_311_25" x1="266.3" y1="53" x2="266.3" y2="-9.9375" gradientUnits="userSpaceOnUse">
<stop stop-color="#FFC46D"/>
<stop offset="0.458333" stop-color="#734F2C"/>
<stop offset="1" stop-color="#341900"/>
</linearGradient>
<linearGradient id="paint2_linear_311_25" x1="260.9" y1="499" x2="260.9" y2="538.187" gradientUnits="userSpaceOnUse">
<stop stop-color="#FFC46D"/>
<stop offset="0.458333" stop-color="#734F2C"/>
<stop offset="1" stop-color="#341900"/>
</linearGradient>
<linearGradient id="paint3_linear_311_25" x1="514" y1="263.1" x2="553.187" y2="263.1" gradientUnits="userSpaceOnUse">
<stop stop-color="#FFC46D"/>
<stop offset="0.458333" stop-color="#734F2C"/>
<stop offset="1" stop-color="#341900"/>
</linearGradient>
<linearGradient id="paint4_linear_311_25" x1="33" y1="258.9" x2="-6.1875" y2="258.9" gradientUnits="userSpaceOnUse">
<stop stop-color="#FFC46D"/>
<stop offset="0.458333" stop-color="#734F2C"/>
<stop offset="1" stop-color="#341900"/>
</linearGradient>
</defs>
</svg>
