<svg width="651" height="651" viewBox="0 0 651 651" fill="none" xmlns="http://www.w3.org/2000/svg">
<circle r="323.5" transform="matrix(-4.37114e-08 -1 -1 4.37114e-08 325.966 325.489)" stroke="#B16000" stroke-width="3"/>
<path fill-rule="evenodd" clip-rule="evenodd" d="M3.96611 325.489C3.9661 147.653 148.13 3.48856 325.966 3.48855C503.802 3.48854 647.966 147.653 647.966 325.489C647.966 503.324 503.802 647.489 325.966 647.489C148.13 647.489 3.96612 503.324 3.96611 325.489ZM325.966 127.489C216.614 127.489 127.966 216.136 127.966 325.489C127.966 434.841 216.614 523.489 325.966 523.489C435.318 523.489 523.966 434.841 523.966 325.489C523.966 216.136 435.318 127.489 325.966 127.489Z" fill="url(#paint0_radial_93_901)"/>
<path fill-rule="evenodd" clip-rule="evenodd" d="M164.221 46.9988C68.386 102.779 3.96612 206.611 3.96613 325.489C3.96613 325.622 3.96621 325.755 3.96637 325.888L127.966 325.826C127.966 325.714 127.966 325.601 127.966 325.489C127.966 252.408 167.558 188.575 226.463 154.269L164.221 46.9988Z" fill="url(#paint1_radial_93_901)"/>
<path fill-rule="evenodd" clip-rule="evenodd" d="M523.966 325.94C523.966 325.789 523.966 325.639 523.966 325.489C523.966 251.925 483.848 187.731 424.297 153.592L485.761 47.0098C533.33 74.334 574.546 114.192 603.95 165.121C633.201 215.785 647.119 271.093 647.144 325.673L523.966 325.94Z" fill="url(#paint2_radial_93_901)"/>
<path fill-rule="evenodd" clip-rule="evenodd" d="M325.786 647.488C267.24 647.456 212.349 631.8 165.056 604.463L226.834 496.923C255.987 513.817 289.847 523.489 325.966 523.489C362.05 523.489 395.88 513.836 425.014 496.972L486.987 604.189C439.587 631.695 384.526 647.456 325.786 647.488Z" fill="url(#paint3_radial_93_901)"/>
<path d="M111.247 498.955L117.413 495.395L115.013 491.238L133.095 480.798L128.375 472.623L104.127 486.623L111.247 498.955ZM120.87 458.344C117.17 451.935 109.888 450.043 101.852 454.683C93.8149 459.323 91.813 466.575 95.513 472.984C99.213 479.392 106.495 481.285 114.532 476.645C122.568 472.005 124.57 464.752 120.87 458.344ZM114.323 462.124C115.243 463.717 114.468 465.735 109.792 468.435C105.115 471.135 102.98 470.797 102.06 469.204C101.14 467.61 101.915 465.593 106.592 462.893C111.268 460.193 113.403 460.53 114.323 462.124ZM89.2349 460.83L95.401 457.27L93.001 453.113L111.084 442.673L106.364 434.498L82.1149 448.498L89.2349 460.83ZM90.0991 431.927C87.9791 428.255 83.9543 426.883 79.6241 429.383C75.3287 431.863 74.4691 436.055 76.5891 439.727C78.7091 443.399 82.7687 444.75 87.0641 442.27C91.3943 439.77 92.2191 435.599 90.0991 431.927ZM102.524 427.848L99.1443 421.993L65.3356 419.435L68.7156 425.289L102.524 427.848ZM86.3579 434.087C86.7979 434.849 86.5451 436.011 84.2241 437.351C81.9032 438.691 80.7704 438.329 80.3304 437.567C79.8904 436.805 80.1432 435.642 82.4641 434.302C84.7851 432.962 85.9179 433.325 86.3579 434.087ZM91.2707 407.556C89.1507 403.884 85.1258 402.513 80.7957 405.013C76.5002 407.493 75.6407 411.684 77.7607 415.356C79.8807 419.028 83.9402 420.379 88.2357 417.899C92.5658 415.399 93.3907 411.228 91.2707 407.556ZM87.5294 409.716C87.9694 410.478 87.7166 411.64 85.3957 412.98C83.0747 414.32 81.9419 413.958 81.5019 413.196C81.0619 412.434 81.3147 411.272 83.6357 409.932C85.9566 408.592 87.0894 408.954 87.5294 409.716Z" fill="#270000"/>
<path d="M288.346 60.4549L293.546 55.1749L293.546 49.3749L272.666 49.3749L272.666 56.4949L282.666 56.4949L278.546 60.6949V66.4949L282.266 66.4949C284.666 66.4949 285.586 67.2149 285.586 68.4149C285.586 69.8549 284.066 70.5749 281.946 70.5749C279.586 70.5749 276.826 69.9349 274.426 68.5349L271.226 75.4949C274.226 77.1749 278.426 78.0149 282.266 78.0149C291.226 78.0149 295.066 73.2149 295.066 68.4149C295.066 64.5349 292.746 61.5349 288.346 60.4549ZM296.681 49.3749V60.7749L304.481 60.7749V56.6949L309.881 56.6949L301.001 77.3749L311.321 77.3749L320.641 55.1749V49.3749L296.681 49.3749ZM337.201 59.2549C334.841 59.2549 333.041 59.8149 331.641 60.8149C332.281 57.6949 334.521 56.0549 337.721 56.0549C339.481 56.0549 341.161 56.3749 342.801 57.5349L346.201 50.9349C344.081 49.5349 340.841 48.7349 337.521 48.7349C328.281 48.7349 322.001 54.4549 322.001 64.2549C322.001 73.4149 327.441 78.0149 335.441 78.0149C341.761 78.0149 346.801 74.2149 346.801 68.2149C346.801 62.7349 342.321 59.2549 337.201 59.2549ZM334.801 71.4949C333.121 71.4949 331.921 70.4149 331.921 68.6549C331.921 66.8949 333.121 65.7749 334.801 65.7749C336.481 65.7749 337.681 66.8949 337.681 68.6549C337.681 70.4149 336.481 71.4949 334.801 71.4949ZM354.585 64.5749C358.825 64.5749 362.025 61.7749 362.025 56.7749C362.025 51.8149 358.825 48.9749 354.585 48.9749C350.345 48.9749 347.145 51.8149 347.145 56.7749C347.145 61.7749 350.345 64.5749 354.585 64.5749ZM351.905 77.3749L358.665 77.3749L377.785 49.3749L371.025 49.3749L351.905 77.3749ZM354.585 60.2549C353.705 60.2549 352.825 59.4549 352.825 56.7749C352.825 54.0949 353.705 53.2949 354.585 53.2949C355.465 53.2949 356.345 54.0949 356.345 56.7749C356.345 59.4549 355.465 60.2549 354.585 60.2549ZM375.105 77.7749C379.345 77.7749 382.545 74.9749 382.545 69.9749C382.545 65.0149 379.345 62.1749 375.105 62.1749C370.865 62.1749 367.665 65.0149 367.665 69.9749C367.665 74.9749 370.865 77.7749 375.105 77.7749ZM375.105 73.4549C374.225 73.4549 373.345 72.6549 373.345 69.9749C373.345 67.2949 374.225 66.4949 375.105 66.4949C375.985 66.4949 376.865 67.2949 376.865 69.9749C376.865 72.6549 375.985 73.4549 375.105 73.4549Z" fill="#270000"/>
<path d="M589.913 403.82L580.04 398.12L576.14 404.875L579.673 406.915L576.973 411.591L563.504 393.561L558.344 402.498L572.91 421.67L577.933 424.57L589.913 403.82ZM546.11 422.409C542.41 428.817 544.412 436.07 552.448 440.71C560.485 445.35 567.767 443.457 571.467 437.049C575.167 430.64 573.165 423.387 565.128 418.747C557.092 414.107 549.81 416 546.11 422.409ZM552.657 426.189C553.577 424.595 555.712 424.257 560.388 426.957C565.065 429.657 565.84 431.675 564.92 433.269C564 434.862 561.865 435.2 557.188 432.5C552.512 429.8 551.737 427.782 552.657 426.189ZM546.781 448.125C544.661 451.797 545.486 455.968 549.816 458.468C554.112 460.948 558.171 459.597 560.291 455.925C562.411 452.253 561.552 448.062 557.256 445.582C552.926 443.082 548.901 444.453 546.781 448.125ZM537.036 439.404L533.656 445.259L548.345 475.817L551.725 469.963L537.036 439.404ZM550.523 450.285C550.963 449.523 552.095 449.161 554.416 450.501C556.737 451.841 556.99 453.003 556.55 453.765C556.11 454.527 554.977 454.889 552.656 453.549C550.335 452.209 550.083 451.047 550.523 450.285ZM525.09 459.296C522.97 462.968 523.795 467.139 528.125 469.639C532.42 472.119 536.48 470.768 538.6 467.096C540.72 463.424 539.86 459.233 535.565 456.753C531.235 454.253 527.21 455.624 525.09 459.296ZM528.831 461.456C529.271 460.694 530.404 460.332 532.725 461.672C535.046 463.012 535.299 464.174 534.859 464.936C534.419 465.698 533.286 466.06 530.965 464.72C528.644 463.38 528.391 462.218 528.831 461.456Z" fill="#270000"/>
<path d="M84.2664 222.179L88.3964 215.026L72.7257 205.978L76.3132 199.764L70.7663 196.562L59.4613 216.143L65.0082 219.345L68.5957 213.131L84.2664 222.179ZM100.389 194.254L104.799 186.615L95.6794 187.291C95.8461 183.992 94.3824 181.207 91.321 179.44C86.4107 176.605 81.149 178.578 77.7365 184.489L71.839 194.704L93.0566 206.954L97.1866 199.801L91.8519 196.721L92.9719 194.781L100.389 194.254ZM87.156 186.654C88.7019 187.546 89.099 189.029 87.9615 190.999L86.4565 193.606L81.4856 190.736L82.9906 188.129C84.1281 186.159 85.6102 185.761 87.156 186.654ZM96.6076 151.803L92.6176 158.714L97.4329 167.314L87.5951 167.413L83.2376 174.961L101.285 174.711L109.075 179.209L113.205 172.055L105.506 167.61L96.6076 151.803ZM108.629 249.982L112.899 242.586L86.3262 239.611L82.2662 246.643L98.1288 268.169L102.329 260.894L99.4534 257.334L104.108 249.272L108.629 249.982ZM95.438 252.389L91.2933 247.248L97.818 248.267L95.438 252.389ZM115.67 224.347C115.526 225.436 115.188 226.372 114.68 227.251C112.913 230.312 109.636 231.088 106.453 229.25C103.18 227.36 102.304 224.187 104.124 221.035C105.209 219.156 106.889 218.065 109.205 217.624L107.816 210.719C103.937 211.349 100.539 213.873 98.1244 218.056C94.0819 225.058 95.7714 232.702 102.288 236.464C108.805 240.227 116.269 237.868 120.224 231.018C122.027 227.896 123.135 223.807 122.864 220.215L113.892 215.035L110.305 221.249L115.67 224.347ZM136.007 202.562L140.277 195.166L113.704 192.191L109.644 199.223L125.507 220.749L129.707 213.474L126.831 209.914L131.486 201.852L136.007 202.562ZM122.816 204.969L118.671 199.828L125.196 200.847L122.816 204.969ZM140.936 194.025L145.066 186.871L123.848 174.621L119.718 181.775L140.936 194.025ZM133.886 157.235L143.525 162.8L129.231 165.297L125.836 171.178L147.054 183.428L151.079 176.456L141.44 170.891L155.734 168.393L159.129 162.513L137.911 150.263L133.886 157.235Z" fill="#FFB547"/>
<path d="M533.813 205.556C537.513 211.965 544.795 213.857 552.832 209.217C560.869 204.577 562.871 197.325 559.171 190.916C555.471 184.508 548.189 182.615 540.152 187.255C532.115 191.895 530.113 199.148 533.813 205.556ZM540.36 201.776C539.44 200.183 540.215 198.165 544.892 195.465C549.568 192.765 551.703 193.103 552.623 194.696C553.543 196.29 552.768 198.307 548.092 201.007C543.415 203.707 541.28 203.37 540.36 201.776Z" fill="#FFB547"/>
<path d="M340.045 595.079L342.835 595.079L342.835 598.289L349.495 598.289L349.495 595.079L352.345 595.079L344.425 606.989L351.685 606.989L360.595 594.089L360.595 589.589L349.705 589.589L349.705 585.989L342.835 585.989L342.835 589.589L340.045 589.589L340.045 595.079ZM329.548 585.509C323.998 585.509 320.038 589.529 320.038 596.489C320.038 603.449 323.998 607.469 329.548 607.469C335.098 607.469 339.058 603.449 339.058 596.489C339.058 589.529 335.098 585.509 329.548 585.509ZM329.548 591.179C330.928 591.179 331.948 592.439 331.948 596.489C331.948 600.539 330.928 601.799 329.548 601.799C328.168 601.799 327.148 600.539 327.148 596.489C327.148 592.439 328.168 591.179 329.548 591.179ZM313.096 595.589C309.916 595.589 307.516 597.689 307.516 601.439C307.516 605.159 309.916 607.289 313.096 607.289C316.276 607.289 318.676 605.159 318.676 601.439C318.676 597.689 316.276 595.589 313.096 595.589ZM315.106 585.989L310.036 585.989L295.696 606.989L300.766 606.989L315.106 585.989ZM313.096 598.829C313.756 598.829 314.416 599.429 314.416 601.439C314.416 603.449 313.756 604.049 313.096 604.049C312.436 604.049 311.776 603.449 311.776 601.439C311.776 599.429 312.436 598.829 313.096 598.829ZM297.706 585.689C294.526 585.689 292.126 587.789 292.126 591.539C292.126 595.259 294.526 597.389 297.706 597.389C300.886 597.389 303.286 595.259 303.286 591.539C303.286 587.789 300.886 585.689 297.706 585.689ZM297.706 588.929C298.366 588.929 299.026 589.529 299.026 591.539C299.026 593.549 298.366 594.149 297.706 594.149C297.046 594.149 296.386 593.549 296.386 591.539C296.386 589.529 297.046 588.929 297.706 588.929Z" fill="#FFB547"/>
<defs>
<radialGradient id="paint0_radial_93_901" cx="0" cy="0" r="1" gradientUnits="userSpaceOnUse" gradientTransform="translate(325.966 325.489) rotate(180) scale(326)">
<stop stop-color="#FFB097"/>
<stop offset="0.41835" stop-color="#F1873A"/>
<stop offset="0.657804" stop-color="#CC7030"/>
<stop offset="0.897258" stop-color="#743A19"/>
<stop offset="1" stop-color="#241010"/>
</radialGradient>
<radialGradient id="paint1_radial_93_901" cx="0" cy="0" r="1" gradientUnits="userSpaceOnUse" gradientTransform="translate(277.966 288.989) rotate(-149.69) scale(270.471 292.287)">
<stop stop-color="#814329"/>
<stop offset="0.390625" stop-color="#551F00"/>
<stop offset="0.734375" stop-color="#421409"/>
<stop offset="1" stop-color="#1D1111"/>
</radialGradient>
<radialGradient id="paint2_radial_93_901" cx="0" cy="0" r="1" gradientUnits="userSpaceOnUse" gradientTransform="translate(380.466 303.185) rotate(-29.6902) scale(270.471 292.287)">
<stop stop-color="#814329"/>
<stop offset="0.390625" stop-color="#551F00"/>
<stop offset="0.734375" stop-color="#421409"/>
<stop offset="1" stop-color="#1D1111"/>
</radialGradient>
<radialGradient id="paint3_radial_93_901" cx="0" cy="0" r="1" gradientUnits="userSpaceOnUse" gradientTransform="translate(317.78 384.914) rotate(90.3098) scale(270.471 292.287)">
<stop stop-color="#814329"/>
<stop offset="0.390625" stop-color="#551F00"/>
<stop offset="0.734375" stop-color="#421409"/>
<stop offset="1" stop-color="#1D1111"/>
</radialGradient>
</defs>
</svg>
