<svg width="544" height="543" viewBox="0 0 544 543" fill="none" xmlns="http://www.w3.org/2000/svg">
<g filter="url(#filter0_d_93_886)">
<path fill-rule="evenodd" clip-rule="evenodd" d="M370.773 442.946C275.354 498.036 153.677 465.925 99.0008 371.223C44.3246 276.521 77.3535 155.09 172.773 100C268.192 44.9096 389.869 77.0211 444.545 171.723C499.221 266.425 466.192 387.856 370.773 442.946Z" fill="url(#paint0_radial_93_886)"/>
<path fill-rule="evenodd" clip-rule="evenodd" d="M172.41 444.212C231.196 477.44 305.788 479.693 369.152 443.872L270.974 273.089L172.41 444.212Z" fill="url(#paint1_radial_93_886)"/>
<path fill-rule="evenodd" clip-rule="evenodd" d="M72.6138 273.514C72.4199 205.168 107.737 138.408 171.004 101.033L271.027 273.415L72.6138 273.514Z" fill="url(#paint2_radial_93_886)"/>
<path fill-rule="evenodd" clip-rule="evenodd" d="M371.044 98.8269C400.681 115.573 426.331 140.175 444.545 171.723C463.042 203.761 471.501 238.858 470.903 273.41L270.541 273.339L371.044 98.8269Z" fill="url(#paint3_radial_93_886)"/>
<path d="M81.2727 271.473C81.2727 376.959 166.786 462.473 272.273 462.473C377.759 462.473 463.273 376.959 463.273 271.473C463.273 165.987 377.759 80.4731 272.273 80.4731C166.786 80.4731 81.2727 165.987 81.2727 271.473ZM272.273 470.473C162.368 470.473 73.2727 381.378 73.2727 271.473C73.2727 161.568 162.368 72.4731 272.273 72.4731C382.177 72.4731 471.273 161.568 471.273 271.473C471.273 381.378 382.177 470.473 272.273 470.473Z" fill="#421B1B" stroke="#A85B00" stroke-width="2"/>
<path d="M408.131 320.058C408.369 321.685 409.174 323.051 410.681 323.921C413.98 325.826 417.896 323.964 420.446 319.548C422.996 315.131 422.65 310.809 419.351 308.904C417.844 308.034 416.259 308.02 414.731 308.627C414.68 306.554 413.776 304.82 411.958 303.77C408.424 301.73 404.203 303.761 401.428 308.568C398.653 313.374 399.004 318.045 402.538 320.085C404.356 321.135 406.31 321.051 408.131 320.058ZM416.315 317.163C415.835 317.994 414.903 318.287 413.916 317.717C412.929 317.147 412.717 316.194 413.197 315.363C413.677 314.531 414.609 314.238 415.596 314.808C416.583 315.378 416.795 316.331 416.315 317.163ZM405.559 310.953C406.234 309.783 407.441 309.372 408.61 310.047C409.78 310.722 410.027 311.973 409.352 313.143C408.677 314.312 407.47 314.723 406.3 314.048C405.131 313.373 404.884 312.122 405.559 310.953ZM403.807 332.587L404.347 331.652L406.065 332.817L402 339.857L406.624 342.527L413.599 330.446L403.082 323.162L400.037 328.436C398.762 330.644 397.928 330.89 397.148 330.44C396.213 329.9 396.304 328.602 397.099 327.225C397.984 325.692 399.42 324.165 401.229 323.131L397.909 318.443C395.692 319.762 393.572 322.175 392.132 324.669C388.772 330.488 390.476 334.798 393.723 336.673C396.945 338.533 400.702 337.965 403.807 332.587ZM391.647 357.788L396.272 360.458L404.807 345.675L386.62 335.175L383.08 341.306L388.9 344.666L384.52 352.253L389.145 354.923L393.525 347.336L396.642 349.136L391.647 357.788ZM372.636 358.436C369.381 364.074 370.552 368.525 373.878 370.445C380.581 374.315 384.567 363.211 386.75 364.471C387.373 364.831 387.563 365.703 386.528 367.495C385.613 369.08 384.196 370.514 382.252 371.781L385.63 376.191C387.79 374.909 389.764 372.689 391.174 370.247C394.429 364.609 393.31 360.187 389.933 358.237C383.152 354.322 379.192 365.442 376.905 364.122C376.282 363.762 376.278 362.928 377.283 361.188C378.438 359.187 380.408 357.276 382.411 356.146L379.082 351.592C376.915 352.765 374.391 355.396 372.636 358.436Z" fill="#270000"/>
<path d="M386.403 181.019L389.353 186.129L400.547 179.666L403.109 184.105L407.071 181.817L398.996 167.831L395.034 170.118L397.597 174.557L386.403 181.019ZM397.92 200.966L401.07 206.422L403.909 200.539C405.89 201.82 408.135 201.909 410.322 200.647C413.829 198.622 414.488 194.662 412.05 190.44L407.838 183.144L392.682 191.894L395.632 197.004L399.443 194.804L400.243 196.189L397.92 200.966ZM407.347 195.494C406.243 196.132 405.184 195.848 404.371 194.441L403.296 192.579L406.847 190.529L407.922 192.391C408.735 193.798 408.451 194.857 407.347 195.494ZM425.529 213.787L422.679 208.851L415.64 208.758L419.092 202.637L415.979 197.246L409.688 208.5L404.124 211.712L407.074 216.822L412.573 213.647L425.529 213.787ZM359.638 186.66L362.688 191.943L374.018 176.567L371.118 171.544L352.138 173.669L355.138 178.866L358.367 178.358L361.692 184.117L359.638 186.66ZM362.86 177.64L367.52 176.913L364.56 180.585L362.86 177.64ZM372.981 200.171C372.359 199.693 371.9 199.149 371.538 198.521C370.275 196.335 370.966 194.031 373.239 192.718C375.578 191.368 377.853 191.96 379.153 194.211C379.928 195.554 380.003 196.983 379.449 198.573L384.216 200.18C385.212 197.555 384.863 194.552 383.138 191.564C380.251 186.563 374.919 184.878 370.264 187.565C365.609 190.253 364.403 195.713 367.228 200.606C368.515 202.836 370.649 204.981 372.967 206.097L379.376 202.397L376.813 197.958L372.981 200.171ZM379.193 220.531L382.243 225.814L393.574 210.439L390.674 205.416L371.693 207.541L374.693 212.737L377.922 212.23L381.247 217.989L379.193 220.531ZM382.415 211.512L387.076 210.784L384.115 214.456L382.415 211.512ZM382.714 226.629L385.664 231.739L400.82 222.989L397.87 217.879L382.714 226.629ZM407.99 235.408L401.105 239.383L404.665 229.649L402.24 225.449L387.084 234.199L389.959 239.178L396.844 235.203L393.284 244.937L395.709 249.138L410.865 240.388L407.99 235.408Z" fill="#FFB547"/>
<path d="M149.354 377.59L153.978 374.92L152.178 371.802L165.74 363.972L162.2 357.841L144.014 368.341L149.354 377.59ZM156.571 347.131C153.796 342.325 148.335 340.905 142.307 344.385C136.28 347.865 134.778 353.305 137.553 358.111C140.328 362.918 145.79 364.337 151.817 360.857C157.845 357.377 159.346 351.938 156.571 347.131ZM151.661 349.966C152.351 351.162 151.77 352.675 148.262 354.7C144.755 356.725 143.154 356.472 142.464 355.276C141.774 354.081 142.355 352.568 145.862 350.543C149.37 348.518 150.971 348.771 151.661 349.966ZM128.008 329.938L123.383 332.608L131.918 347.391L150.105 336.891L146.565 330.76L140.745 334.12L136.365 326.533L131.741 329.203L136.121 336.79L133.003 338.59L128.008 329.938ZM136.952 313.15C133.697 307.512 129.256 306.3 125.931 308.22C119.228 312.09 126.851 321.095 124.669 322.355C124.045 322.715 123.196 322.443 122.161 320.651C121.246 319.066 120.713 317.122 120.587 314.805L115.079 315.525C115.109 318.036 116.044 320.857 117.454 323.299C120.709 328.937 125.098 330.179 128.476 328.229C135.257 324.314 127.607 315.324 129.893 314.004C130.517 313.644 131.241 314.058 132.246 315.798C133.401 317.799 134.071 320.46 134.048 322.76L139.657 322.154C139.724 319.691 138.707 316.19 136.952 313.15Z" fill="#270000"/>
<path d="M225.15 117.397L225.15 122.737L228.75 122.737L228.75 138.397L235.83 138.397L235.83 117.397L225.15 117.397ZM247.92 138.877C253.47 138.877 257.43 134.857 257.43 127.897C257.43 120.937 253.47 116.917 247.92 116.917C242.37 116.917 238.41 120.937 238.41 127.897C238.41 134.857 242.37 138.877 247.92 138.877ZM247.92 133.207C246.54 133.207 245.52 131.947 245.52 127.897C245.52 123.847 246.54 122.587 247.92 122.587C249.3 122.587 250.32 123.847 250.32 127.897C250.32 131.947 249.3 133.207 247.92 133.207ZM275.081 127.327C276.371 126.307 277.151 124.927 277.151 123.187C277.151 119.377 273.581 116.917 268.481 116.917C263.381 116.917 259.811 119.377 259.811 123.187C259.811 124.927 260.591 126.307 261.881 127.327C260.111 128.407 259.061 130.057 259.061 132.157C259.061 136.237 262.931 138.877 268.481 138.877C274.031 138.877 277.901 136.237 277.901 132.157C277.901 130.057 276.851 128.407 275.081 127.327ZM268.481 121.687C269.441 121.687 270.161 122.347 270.161 123.487C270.161 124.627 269.441 125.287 268.481 125.287C267.521 125.287 266.801 124.627 266.801 123.487C266.801 122.347 267.521 121.687 268.481 121.687ZM268.481 134.107C267.131 134.107 266.171 133.267 266.171 131.917C266.171 130.567 267.131 129.727 268.481 129.727C269.831 129.727 270.791 130.567 270.791 131.917C270.791 133.267 269.831 134.107 268.481 134.107ZM297.423 122.737L297.423 117.397L280.353 117.397L280.353 138.397L287.433 138.397L287.433 131.677L296.193 131.677L296.193 126.337L287.433 126.337L287.433 122.737L297.423 122.737ZM307.49 138.877C314 138.877 317.27 135.637 317.27 131.797C317.27 124.057 305.66 126.157 305.66 123.637C305.66 122.917 306.32 122.317 308.39 122.317C310.22 122.317 312.17 122.827 314.24 123.877L316.37 118.747C314.18 117.517 311.27 116.917 308.45 116.917C301.94 116.917 298.67 120.097 298.67 123.997C298.67 131.827 310.28 129.697 310.28 132.337C310.28 133.057 309.56 133.477 307.55 133.477C305.24 133.477 302.6 132.727 300.62 131.557L298.34 136.717C300.44 138.007 303.98 138.877 307.49 138.877Z" fill="#270000"/>
<path d="M272.281 397.871C264.881 397.871 259.601 403.231 259.601 412.511C259.601 421.791 264.881 427.151 272.281 427.151C279.681 427.151 284.961 421.791 284.961 412.511C284.961 403.231 279.681 397.871 272.281 397.871ZM272.281 405.431C274.121 405.431 275.481 407.111 275.481 412.511C275.481 417.911 274.121 419.591 272.281 419.591C270.441 419.591 269.081 417.911 269.081 412.511C269.081 407.111 270.441 405.431 272.281 405.431Z" fill="#FFB547"/>
<path d="M155.631 206.159C159.331 199.751 157.329 192.498 149.292 187.858C141.255 183.218 133.974 185.111 130.274 191.519C126.574 197.928 128.575 205.18 136.612 209.82C144.649 214.46 151.931 212.568 155.631 206.159ZM149.084 202.379C148.164 203.973 146.029 204.31 141.352 201.61C136.676 198.91 135.901 196.893 136.821 195.299C137.741 193.706 139.876 193.368 144.552 196.068C149.229 198.768 150.004 200.786 149.084 202.379Z" fill="#FFB547"/>
</g>
<defs>
<filter id="filter0_d_93_886" x="55.2727" y="54.4731" width="434" height="434" filterUnits="userSpaceOnUse" color-interpolation-filters="sRGB">
<feFlood flood-opacity="0" result="BackgroundImageFix"/>
<feColorMatrix in="SourceAlpha" type="matrix" values="0 0 0 0 0 0 0 0 0 0 0 0 0 0 0 0 0 0 127 0" result="hardAlpha"/>
<feOffset/>
<feGaussianBlur stdDeviation="8.5"/>
<feComposite in2="hardAlpha" operator="out"/>
<feColorMatrix type="matrix" values="0 0 0 0 0.154167 0 0 0 0 0 0 0 0 0 0 0 0 0 1 0"/>
<feBlend mode="normal" in2="BackgroundImageFix" result="effect1_dropShadow_93_886"/>
<feBlend mode="normal" in="SourceGraphic" in2="effect1_dropShadow_93_886" result="shape"/>
</filter>
<radialGradient id="paint0_radial_93_886" cx="0" cy="0" r="1" gradientUnits="userSpaceOnUse" gradientTransform="translate(271.773 271.473) rotate(-120) scale(200.46 201.978)">
<stop stop-color="#FFB097"/>
<stop offset="0.41835" stop-color="#F1873A"/>
<stop offset="0.657804" stop-color="#CC7030"/>
<stop offset="0.897258" stop-color="#743A19"/>
<stop offset="1" stop-color="#241010"/>
</radialGradient>
<radialGradient id="paint1_radial_93_886" cx="0" cy="0" r="1" gradientUnits="userSpaceOnUse" gradientTransform="translate(262.957 333.13) rotate(90.3931) scale(270.723 293.037)">
<stop stop-color="#814329"/>
<stop offset="0.390625" stop-color="#551F00"/>
<stop offset="0.734375" stop-color="#421409"/>
<stop offset="1" stop-color="#1D1111"/>
</radialGradient>
<radialGradient id="paint2_radial_93_886" cx="0" cy="0" r="1" gradientUnits="userSpaceOnUse" gradientTransform="translate(223.042 236.676) rotate(-149.69) scale(270.471 292.287)">
<stop stop-color="#814329"/>
<stop offset="0.390625" stop-color="#551F00"/>
<stop offset="0.734375" stop-color="#421409"/>
<stop offset="1" stop-color="#1D1111"/>
</radialGradient>
<radialGradient id="paint3_radial_93_886" cx="0" cy="0" r="1" gradientUnits="userSpaceOnUse" gradientTransform="translate(326.212 250.515) rotate(-29.6892) scale(269.115 291.801)">
<stop stop-color="#814329"/>
<stop offset="0.390625" stop-color="#551F00"/>
<stop offset="0.734375" stop-color="#421409"/>
<stop offset="1" stop-color="#1D1111"/>
</radialGradient>
</defs>
</svg>
